<svg preserveAspectRatio="none" overflow="visible" style="display: block;" width="16" height="16" viewBox="0 0 16 16" fill="none" xmlns="http://www.w3.org/2000/svg">
<g id="pill" clip-path="url(#clip0_0_50)">
<path id="Vector" d="M5.66642 5.66642L10.3336 10.3336M6.9999 13.6673L13.6673 6.9999C13.9788 6.69458 14.2267 6.33053 14.3967 5.9288C14.5667 5.52706 14.6554 5.09562 14.6576 4.65941C14.6598 4.22321 14.5755 3.79089 14.4096 3.38746C14.2436 2.98403 13.9994 2.6175 13.691 2.30905C13.3825 2.0006 13.016 1.75636 12.6125 1.59044C12.2091 1.42453 11.7768 1.34024 11.3406 1.34244C10.9044 1.34465 10.4729 1.4333 10.0712 1.60328C9.66947 1.77326 9.30542 2.02119 9.0001 2.33274L2.33274 9.0001C2.02119 9.30542 1.77326 9.66947 1.60328 10.0712C1.4333 10.4729 1.34465 10.9044 1.34244 11.3406C1.34024 11.7768 1.42453 12.2091 1.59044 12.6125C1.75636 13.016 2.0006 13.3825 2.30905 13.691C2.6175 13.9994 2.98403 14.2436 3.38746 14.4096C3.79089 14.5755 4.22321 14.6598 4.65941 14.6576C5.09562 14.6554 5.52706 14.5667 5.9288 14.3967C6.33053 14.2267 6.69458 13.9788 6.9999 13.6673Z" stroke="#2D6DA5" stroke-width="2" stroke-linecap="round"/>
</g>
<defs>
<clipPath id="clip0_0_50">
<rect width="16" height="16" fill="white"/>
</clipPath>
</defs>
</svg>
